<mxfile host="app.diagrams.net" modified="2023-06-05T10:24:41.646Z" agent="Mozilla/5.0 (Windows NT 10.0; Win64; x64) AppleWebKit/537.36 (KHTML, like Gecko) Chrome/114.0.0.0 Safari/537.36" etag="9WajEBvzknXm8xjrXIAJ" version="21.3.7" type="device">
  <diagram name="Page-1" id="jQ5KuPDEyv2LSv00M9IQ">
    <mxGraphModel dx="2318" dy="1138" grid="1" gridSize="10" guides="1" tooltips="1" connect="1" arrows="1" fold="1" page="1" pageScale="1" pageWidth="1169" pageHeight="827" math="0" shadow="0">
      <root>
        <mxCell id="0" />
        <mxCell id="1" parent="0" />
        <mxCell id="LI3KbK_khGKa7k6lGUar-11" style="edgeStyle=orthogonalEdgeStyle;rounded=0;orthogonalLoop=1;jettySize=auto;html=1;entryX=0.5;entryY=0;entryDx=0;entryDy=0;" edge="1" parent="1" source="LI3KbK_khGKa7k6lGUar-1" target="LI3KbK_khGKa7k6lGUar-2">
          <mxGeometry relative="1" as="geometry" />
        </mxCell>
        <mxCell id="LI3KbK_khGKa7k6lGUar-1" value="&lt;font color=&quot;#ffffff&quot; style=&quot;font-size: 24px;&quot;&gt;Home Page&lt;/font&gt;" style="rounded=1;whiteSpace=wrap;html=1;fillColor=#917CB4;" vertex="1" parent="1">
          <mxGeometry x="168.5" y="45" width="200" height="120" as="geometry" />
        </mxCell>
        <mxCell id="LI3KbK_khGKa7k6lGUar-12" style="edgeStyle=orthogonalEdgeStyle;rounded=0;orthogonalLoop=1;jettySize=auto;html=1;" edge="1" parent="1" source="LI3KbK_khGKa7k6lGUar-2" target="LI3KbK_khGKa7k6lGUar-3">
          <mxGeometry relative="1" as="geometry" />
        </mxCell>
        <mxCell id="LI3KbK_khGKa7k6lGUar-2" value="&lt;font style=&quot;font-size: 24px;&quot;&gt;Click On &quot;Occasions/Events&quot;&lt;br&gt;On Navigation Bar&lt;br&gt;&lt;/font&gt;" style="rounded=1;whiteSpace=wrap;html=1;" vertex="1" parent="1">
          <mxGeometry x="141" y="225" width="255" height="160" as="geometry" />
        </mxCell>
        <mxCell id="LI3KbK_khGKa7k6lGUar-13" style="edgeStyle=orthogonalEdgeStyle;rounded=0;orthogonalLoop=1;jettySize=auto;html=1;exitX=0.5;exitY=1;exitDx=0;exitDy=0;entryX=0.5;entryY=0;entryDx=0;entryDy=0;" edge="1" parent="1" source="LI3KbK_khGKa7k6lGUar-3" target="LI3KbK_khGKa7k6lGUar-4">
          <mxGeometry relative="1" as="geometry" />
        </mxCell>
        <mxCell id="LI3KbK_khGKa7k6lGUar-3" value="&lt;font style=&quot;font-size: 24px;&quot;&gt;Select &quot;Xhosa&quot; From Dropdown Menu&lt;/font&gt;" style="rounded=1;whiteSpace=wrap;html=1;" vertex="1" parent="1">
          <mxGeometry x="168.5" y="445" width="200" height="160" as="geometry" />
        </mxCell>
        <mxCell id="LI3KbK_khGKa7k6lGUar-14" style="edgeStyle=orthogonalEdgeStyle;rounded=0;orthogonalLoop=1;jettySize=auto;html=1;exitX=1;exitY=0.5;exitDx=0;exitDy=0;entryX=0;entryY=0.5;entryDx=0;entryDy=0;" edge="1" parent="1" source="LI3KbK_khGKa7k6lGUar-4" target="LI3KbK_khGKa7k6lGUar-5">
          <mxGeometry relative="1" as="geometry" />
        </mxCell>
        <mxCell id="LI3KbK_khGKa7k6lGUar-4" value="&lt;font style=&quot;font-size: 24px;&quot;&gt;Browse Page&lt;/font&gt;" style="rounded=1;whiteSpace=wrap;html=1;fillColor=#D9D1C0;" vertex="1" parent="1">
          <mxGeometry x="168.5" y="661" width="200" height="120" as="geometry" />
        </mxCell>
        <mxCell id="LI3KbK_khGKa7k6lGUar-15" style="edgeStyle=orthogonalEdgeStyle;rounded=0;orthogonalLoop=1;jettySize=auto;html=1;exitX=0.5;exitY=0;exitDx=0;exitDy=0;entryX=0.5;entryY=1;entryDx=0;entryDy=0;" edge="1" parent="1" source="LI3KbK_khGKa7k6lGUar-5" target="LI3KbK_khGKa7k6lGUar-6">
          <mxGeometry relative="1" as="geometry" />
        </mxCell>
        <mxCell id="LI3KbK_khGKa7k6lGUar-5" value="&lt;font style=&quot;font-size: 24px;&quot;&gt;Click On Desired &quot;Xhosa&quot; Dress&lt;/font&gt;" style="rounded=1;whiteSpace=wrap;html=1;" vertex="1" parent="1">
          <mxGeometry x="478.5" y="661" width="240" height="120" as="geometry" />
        </mxCell>
        <mxCell id="LI3KbK_khGKa7k6lGUar-16" style="edgeStyle=orthogonalEdgeStyle;rounded=0;orthogonalLoop=1;jettySize=auto;html=1;exitX=0.5;exitY=0;exitDx=0;exitDy=0;" edge="1" parent="1" source="LI3KbK_khGKa7k6lGUar-6" target="LI3KbK_khGKa7k6lGUar-7">
          <mxGeometry relative="1" as="geometry" />
        </mxCell>
        <mxCell id="LI3KbK_khGKa7k6lGUar-6" value="&lt;font style=&quot;font-size: 24px;&quot;&gt;Selected Dress Page&lt;/font&gt;" style="rounded=1;whiteSpace=wrap;html=1;fillColor=#C3ABD0;" vertex="1" parent="1">
          <mxGeometry x="498.5" y="465" width="200" height="120" as="geometry" />
        </mxCell>
        <mxCell id="LI3KbK_khGKa7k6lGUar-17" style="edgeStyle=orthogonalEdgeStyle;rounded=0;orthogonalLoop=1;jettySize=auto;html=1;exitX=0.5;exitY=0;exitDx=0;exitDy=0;" edge="1" parent="1" source="LI3KbK_khGKa7k6lGUar-7" target="LI3KbK_khGKa7k6lGUar-8">
          <mxGeometry relative="1" as="geometry" />
        </mxCell>
        <mxCell id="LI3KbK_khGKa7k6lGUar-7" value="&lt;font style=&quot;font-size: 24px;&quot;&gt;Click On &quot;Talk To Someone&quot; Button&lt;/font&gt;" style="rounded=1;whiteSpace=wrap;html=1;" vertex="1" parent="1">
          <mxGeometry x="483.5" y="245" width="230" height="120" as="geometry" />
        </mxCell>
        <mxCell id="LI3KbK_khGKa7k6lGUar-18" style="edgeStyle=orthogonalEdgeStyle;rounded=0;orthogonalLoop=1;jettySize=auto;html=1;entryX=0;entryY=0.5;entryDx=0;entryDy=0;" edge="1" parent="1" source="LI3KbK_khGKa7k6lGUar-8" target="LI3KbK_khGKa7k6lGUar-9">
          <mxGeometry relative="1" as="geometry" />
        </mxCell>
        <mxCell id="LI3KbK_khGKa7k6lGUar-8" value="&lt;font color=&quot;#ffffff&quot; style=&quot;font-size: 24px;&quot;&gt;Share Contact Details Page&lt;/font&gt;" style="rounded=1;whiteSpace=wrap;html=1;fillColor=#8E8182;" vertex="1" parent="1">
          <mxGeometry x="498.5" y="45" width="200" height="120" as="geometry" />
        </mxCell>
        <mxCell id="LI3KbK_khGKa7k6lGUar-19" style="edgeStyle=orthogonalEdgeStyle;rounded=0;orthogonalLoop=1;jettySize=auto;html=1;" edge="1" parent="1" source="LI3KbK_khGKa7k6lGUar-9" target="LI3KbK_khGKa7k6lGUar-10">
          <mxGeometry relative="1" as="geometry" />
        </mxCell>
        <mxCell id="LI3KbK_khGKa7k6lGUar-9" value="&lt;font style=&quot;font-size: 24px;&quot;&gt;Click On &quot;Okay&quot; Button&lt;/font&gt;" style="rounded=1;whiteSpace=wrap;html=1;" vertex="1" parent="1">
          <mxGeometry x="828.5" y="45" width="200" height="120" as="geometry" />
        </mxCell>
        <mxCell id="LI3KbK_khGKa7k6lGUar-10" value="&lt;font color=&quot;#ffffff&quot; style=&quot;font-size: 24px;&quot;&gt;Home Page&lt;/font&gt;" style="rounded=1;whiteSpace=wrap;html=1;fillColor=#917CB4;" vertex="1" parent="1">
          <mxGeometry x="828.5" y="245" width="200" height="120" as="geometry" />
        </mxCell>
      </root>
    </mxGraphModel>
  </diagram>
</mxfile>
